<svg
                    viewBox="0 0 211.66666 211.66667"
                    version="1.1"
                    id="svg1"
                    xml:space="preserve"
                    xmlns="http://www.w3.org/2000/svg"
                    xmlns:svg="http://www.w3.org/2000/svg">
                        <g
                        id="g1"
                        transform="matrix(1.3292649,0,0,1.3292649,-38.706661,-47.784308)">
                        <path
                        color="currentColor"
                        d="m 164.4494,167.72918 c -11.69664,-3.97132 -23.25379,-6.60486 -35.45417,-8.07898 -7.46505,-0.90197 -23.74023,-1.33535 -31.220829,-0.83136 -19.506487,1.31421 -34.233252,4.0572 -49.193662,9.16274 -2.317973,0.79106 -4.251262,1.40152 -4.296198,1.35659 -0.100237,-0.10024 -0.249116,-61.55984 -0.149122,-61.55981 0.03929,10e-6 1.110851,0.52191 2.38125,1.15979 8.486316,4.26104 22.608326,8.64675 33.662941,10.45433 4.243005,0.69379 10.918216,1.3193 14.353645,1.34503 l 0.727604,0.005 v -9.26042 -9.26041 H 84.677526 74.094193 V 90.319142 78.415928 l 10.517187,-0.06918 10.517187,-0.06918 0.06949,-9.458854 0.06949,-9.458854 h 12.561023 12.56102 l 0.0695,9.458854 0.0695,9.458854 9.59114,0.06945 9.59115,0.06945 v 11.90295 11.902952 h -9.48227 -9.48227 l -0.17095,8.26823 c -0.18342,8.87088 -0.10479,10.25325 0.58313,10.25152 4.74146,-0.0119 15.38251,-1.57559 21.59507,-3.17335 8.06958,-2.07536 17.86648,-5.52339 25.86302,-9.10254 l 1.52135,-0.68094 v 30.95291 c 0,17.0241 -0.0298,30.93599 -0.0661,30.91531 -0.0364,-0.0207 -2.56645,-0.88652 -5.62239,-1.92409 z M 50.413986,166.17162 c 7.460989,-2.44494 16.737144,-4.75232 23.547916,-5.85739 6.859828,-1.11302 9.501081,-1.46349 16.007291,-2.12398 3.850798,-0.39092 13.758057,-0.93287 17.065627,-0.93352 9.31816,-0.002 25.1019,1.34225 32.41145,2.76005 4.534,0.87944 12.02321,2.60752 15.61042,3.60199 3.22692,0.89458 12.00236,3.60304 13.3523,4.12106 0.35707,0.13702 0.40897,-3.06356 0.46987,-28.97757 0.0376,-16.02238 0.0394,-29.13159 0.004,-29.13159 -0.0355,1e-5 -1.77789,0.71238 -3.87198,1.58304 -9.34044,3.88349 -21.15006,7.63372 -27.54889,8.74836 -4.32701,0.75374 -8.3903,1.32026 -11.64167,1.62313 -5.08881,0.47402 -31.604334,0.47005 -36.909371,-0.006 -14.132697,-1.26697 -26.653476,-4.47903 -39.774157,-10.20361 -1.866673,-0.81443 -3.503782,-1.48079 -3.638021,-1.48079 -0.368245,0 -0.292886,2.01305 0.08666,2.31492 0.405428,0.32246 8.76705,3.66069 9.820958,3.92085 0.583006,0.14391 0.902461,0.50093 1.37783,1.53985 0.917639,2.00551 1.990998,7.30563 1.479506,7.30563 -0.115512,0 -0.559718,-0.36724 -0.987126,-0.8161 -1.149264,-1.20694 -2.873887,-2.40618 -5.47346,-3.80606 l -2.315104,-1.24668 v 8.20482 8.20483 l 1.256771,0.41067 c 2.986234,0.97582 5.124866,0.74959 6.463796,-0.68374 l 0.7461,-0.7987 v 1.55619 c 0,1.47357 -0.085,1.67834 -1.601015,3.85717 -0.880558,1.26555 -1.709065,2.36777 -1.841127,2.44939 -0.132062,0.0816 -1.048715,-0.25669 -2.037006,-0.75179 -0.988292,-0.49511 -2.064784,-0.98336 -2.392206,-1.08501 l -0.595313,-0.18481 v 5.20527 5.20527 l 0.661459,0.5203 c 0.591827,0.46553 0.661458,0.71325 0.661458,2.35319 0,1.77868 -0.01956,1.83288 -0.661458,1.83288 h -0.661459 v 3.22666 c 0,3.14307 0.01846,3.24594 0.712631,3.9705 0.4526,0.47241 0.62045,0.836 0.460005,0.99645 -0.138944,0.13894 -1.382362,0.64744 -2.763151,1.12999 l -2.510526,0.87737 -0.08306,1.15202 c -0.06242,0.86571 0.0033,1.11933 0.264583,1.0205 0.191203,-0.0723 2.371705,-0.7948 4.845559,-1.60548 z M 161.2744,163.31803 c -1.74625,-0.56585 -3.32757,-1.03026 -3.51403,-1.03203 -0.64728,-0.006 -0.62635,-0.76791 0.0529,-1.92701 l 0.68297,-1.16542 v -7.16775 c 0,-7.95007 0.17362,-7.17119 -1.99447,-8.94778 -0.93912,-0.76953 -1.12473,-1.04891 -0.88709,-1.33525 0.16529,-0.19915 0.43477,-0.36267 0.59886,-0.36337 0.16408,-6.9e-4 0.74481,-0.41134 1.29052,-0.91255 l 0.99218,-0.91129 -0.0122,-8.94317 -0.0122,-8.94318 -1.71396,1.85208 -1.71396,1.85209 0.17717,-1.19063 c 0.23468,-1.57707 1.8682,-7.43817 2.13755,-7.66957 0.11641,-0.10001 1.34275,-0.57729 2.72519,-1.06064 1.38245,-0.48334 3.44683,-1.27662 4.58751,-1.76284 1.14068,-0.48622 2.12295,-0.88403 2.18281,-0.88403 0.0599,0 0.10885,2.22923 0.10885,4.95384 v 4.95384 l -1.85208,-1.83789 -1.85209,-1.83789 0.003,21.15957 0.003,21.15957 0.66452,1.42752 c 0.36548,0.78513 0.63221,1.4579 0.59273,1.49505 -0.0395,0.0371 -1.50054,-0.39543 -3.24679,-0.96127 z M 57.738157,160.94912 c 0.337331,-0.44247 0.881219,-1.17446 1.208641,-1.62663 l 0.595313,-0.82214 V 139.34839 120.19643 L 58.862864,118.856 c -0.373586,-0.73723 -0.608719,-1.41096 -0.522517,-1.49716 0.0862,-0.0862 0.540691,-0.0199 1.009976,0.14727 0.469285,0.16719 3.115433,0.96922 5.880329,1.78227 4.494434,1.32165 5.135474,1.58217 6.050064,2.45873 1.68576,1.61568 1.755144,1.96207 1.755144,8.76241 0,7.0808 0.08651,6.84068 -2.932238,8.13821 -0.957888,0.41172 -1.775142,0.86189 -1.81612,1.00037 -0.04098,0.13849 0.902983,0.80476 2.097692,1.48061 1.194709,0.67586 2.278031,1.39599 2.407381,1.6003 0.12935,0.20431 0.237005,3.38878 0.239234,7.07661 0.0039,6.37865 0.03074,6.73908 0.552203,7.40201 0.301484,0.38327 0.431789,0.73565 0.289567,0.78306 -0.779321,0.25977 -6.279288,1.31271 -6.37488,1.22044 -0.06226,-0.0601 0.146098,-0.57064 0.463021,-1.13453 0.546539,-0.97243 0.576224,-1.346 0.576224,-7.25135 v -6.2261 l -2.051423,-0.68319 c -1.128283,-0.37575 -2.199845,-0.68319 -2.38125,-0.68319 -0.255443,0 -0.329827,1.653 -0.329827,7.32959 v 7.32959 l 0.841811,0.86853 c 0.462995,0.47769 0.790417,0.90984 0.727604,0.96032 -0.163394,0.13132 -7.580569,2.03281 -7.929427,2.03281 -0.159833,0 -0.01461,-0.36202 0.322725,-0.80449 z m 8.749266,-24.3071 2.315104,-1.38227 v -4.82646 c 0,-3.44757 -0.09449,-4.95353 -0.330729,-5.27122 -0.181901,-0.24462 -1.312995,-0.80191 -2.513542,-1.23842 L 63.775444,123.13 v 7.55346 c 0,4.1544 0.0893,7.50562 0.198437,7.44714 0.109141,-0.0585 1.240235,-0.72833 2.513542,-1.48858 z m 85.526557,24.05984 c -2.49789,-0.6781 -2.63967,-0.75384 -2.53559,-1.35461 0.15898,-0.91773 0.17992,-38.29779 0.0221,-39.37159 l -0.13229,-0.89981 2.72851,-0.91368 c 1.50069,-0.50253 2.79524,-0.84696 2.87679,-0.76541 0.0815,0.0815 -0.0504,0.89762 -0.29324,1.81349 -0.39638,1.49501 -0.43351,3.59902 -0.36324,20.58294 l 0.0783,18.91771 0.59424,1.38906 c 0.71184,1.66399 0.84079,1.6379 -2.97549,0.6019 z m -8.06979,-1.88805 c -1.81901,-0.42212 -3.47068,-0.82817 -3.67038,-0.90233 -0.25352,-0.0942 0.007,-0.53081 0.8643,-1.44703 l 1.22739,-1.31218 -0.0705,-6.93302 -0.0705,-6.93302 -0.71263,-0.19047 c -0.39194,-0.10475 -1.31467,-0.27326 -2.05052,-0.37447 l -1.33789,-0.18401 v 7.3999 c 0,5.7252 0.0853,7.64152 0.3767,8.46757 0.20718,0.58723 0.32621,1.11817 0.2645,1.17988 -0.10746,0.10746 -7.03181,-0.85619 -7.20975,-1.00337 -0.0474,-0.0392 0.45857,-0.57356 1.12448,-1.18737 l 1.21073,-1.11601 V 139.81319 125.3485 l -1.04737,-1.02274 c -0.57606,-0.5625 -0.99618,-1.10556 -0.93362,-1.20679 0.0626,-0.10124 1.0399,-0.32589 2.17186,-0.49924 1.13195,-0.17334 2.6839,-0.44746 3.44878,-0.60915 0.76488,-0.1617 1.45386,-0.23083 1.53106,-0.15363 0.0772,0.0772 -0.10213,0.75556 -0.39851,1.50747 -0.48412,1.22823 -0.53886,1.95621 -0.53886,7.16616 v 5.79905 l 0.99218,0.18935 c 0.54571,0.10414 1.46844,0.19884 2.05053,0.21043 l 1.05833,0.0211 0.0821,-6.08542 c 0.0575,-4.26508 -0.0189,-6.52071 -0.25557,-7.54062 -0.18571,-0.80037 -0.34172,-1.56535 -0.34668,-1.69996 -0.0109,-0.29695 6.0442,-1.99977 6.15369,-1.73054 0.0425,0.10452 -0.22538,0.87443 -0.59531,1.7109 l -0.6726,1.52086 v 16.62828 16.62829 l 0.66146,1.49567 c 0.3638,0.82262 0.66146,1.59992 0.66146,1.72734 0,0.31446 -0.18127,0.28745 -3.96875,-0.59147 z m -68.803118,-17.74283 -0.01145,-16.75592 -1.296823,-1.44779 c -0.713252,-0.79629 -1.26539,-1.47924 -1.226973,-1.51765 0.03842,-0.0384 2.007271,0.28567 4.37523,0.72019 2.36796,0.43453 4.351583,0.79005 4.408051,0.79005 0.299362,0 2.324828,4.75595 2.114879,4.9659 -0.05646,0.0565 -0.953699,-0.20433 -1.993865,-0.57954 -1.040165,-0.37521 -2.062708,-0.6822 -2.272316,-0.6822 -0.31802,0 -0.381107,0.81027 -0.381107,4.89479 0,2.69214 0.0893,4.89401 0.198438,4.89305 0.10914,-9.6e-4 0.555625,-0.24497 0.992187,-0.54226 0.436563,-0.29729 1.257434,-0.78395 1.824159,-1.08147 l 1.030408,-0.54094 -0.146206,1.67852 c -0.08041,0.92319 -0.400209,2.4827 -0.710656,3.46558 l -0.56445,1.78705 -0.716627,-0.36447 c -0.394145,-0.20046 -0.984518,-0.44711 -1.31194,-0.54812 l -0.595313,-0.18364 v 6.39652 6.39651 l 0.595313,-0.14291 c 0.327422,-0.0786 1.042706,-0.22399 1.589522,-0.32309 0.789632,-0.14311 1.266009,-0.50547 2.315104,-1.761 l 1.320894,-1.58081 0.0389,1.01533 c 0.0333,0.86917 0.06572,0.80585 0.225254,-0.43989 0.102495,-0.80036 0.277919,-2.12231 0.389831,-2.93765 l 0.203475,-1.48244 -1.090188,-0.17433 c -0.599604,-0.0959 -1.090188,-0.21012 -1.090188,-0.25386 0,-0.0437 0.348225,-1.10972 0.773834,-2.36884 0.774616,-2.29162 1.222247,-4.19685 2.637488,-11.22583 l 0.756767,-3.75859 -0.639044,-1.8977 c -0.351475,-1.04374 -0.600063,-1.93668 -0.552418,-1.98433 0.04764,-0.0476 1.748878,0.0569 3.78052,0.23233 l 3.693894,0.31895 0.06877,1.5875 c 0.03782,0.87313 0.421597,6.52859 0.852826,12.56771 0.431229,6.03911 0.863149,12.36095 0.959821,14.04853 l 0.175767,3.06833 -1.028593,0.16991 c -0.565727,0.0935 -1.456887,0.17122 -1.980356,0.17282 l -0.951762,0.003 -0.171514,-2.97656 c -0.09433,-1.63711 -0.172055,-4.19696 -0.172717,-5.68855 l -0.0012,-2.71197 h -1.322917 c -1.194147,0 -1.323369,0.0579 -1.327566,0.59531 -0.0026,0.32742 -0.06737,1.42875 -0.144032,2.44739 -0.463386,6.15738 -0.701784,8.49092 -0.886619,8.67858 -0.114796,0.11655 -1.80405,0.38468 -3.753897,0.59585 -3.672159,0.39771 -6.980583,0.8298 -8.241531,1.07638 l -0.727604,0.14228 z m 16.054615,-4.11348 c -0.259623,-4.5457 -0.453102,-5.89556 -0.845025,-5.89556 -0.52515,0 -1.151778,3.87124 -1.16705,7.20989 l -0.0082,1.78594 h 1.098657 1.098657 z m 32.507883,18.92392 c -1.45521,-0.13354 -2.7803,-0.38498 -2.94465,-0.55875 -0.16435,-0.17376 -1.15713,-2.20741 -2.20619,-4.51921 -1.50647,-3.31982 -1.83294,-4.25371 -1.55327,-4.44322 0.29331,-0.19875 4.67339,-2.52076 5.30786,-2.81384 0.10519,-0.0486 0.22425,1.66824 0.26458,3.81518 l 0.0733,3.90354 0.7508,0.20048 c 0.41295,0.11027 1.36545,0.23775 2.11667,0.28331 l 1.36587,0.0828 0.071,-5.98936 0.071,-5.98936 -0.6002,-0.15035 c -0.33012,-0.0827 -2.3071,-0.51418 -4.39331,-0.95884 -2.08621,-0.44467 -4.02097,-0.93044 -4.29948,-1.07949 -0.47397,-0.25367 -0.50638,-0.62471 -0.50638,-5.79765 v -5.52664 l 0.69,-0.82001 c 0.3795,-0.45101 0.91844,-0.94228 1.19765,-1.09171 0.77496,-0.41474 9.77451,-1.08708 10.16898,-0.7597 0.33529,0.27826 2.23087,4.5024 2.23087,4.97129 0,0.14538 -0.44648,0.40778 -0.99218,0.58311 -0.54571,0.17533 -1.6897,0.60823 -2.54222,0.96198 -0.85251,0.35376 -1.60533,0.5879 -1.67293,0.5203 -0.0676,-0.0676 -7e-5,-0.56778 0.15006,-1.11152 0.18921,-0.68526 0.18755,-1.14823 -0.005,-1.50879 -0.25402,-0.47464 -0.45571,-0.50387 -2.3042,-0.33388 -2.88676,0.26547 -2.95186,0.3541 -2.95186,4.01897 0,2.87255 0.0267,3.01793 0.59532,3.24301 0.32742,0.1296 2.58961,0.62514 5.02708,1.10119 l 4.43177,0.86556 v 5.99996 c 0,5.96365 0.004,6.00586 0.66146,6.97468 0.3638,0.53609 0.66146,1.08745 0.66146,1.22525 0,0.1378 -0.387,0.75759 -0.85999,1.37732 -0.47299,0.61972 -1.21713,1.6921 -1.65364,2.38306 l -0.79366,1.2563 -1.45521,-0.0361 c -0.80037,-0.0199 -2.64584,-0.14535 -4.10104,-0.2789 z m -26.855211,-0.75294 c 0,-0.15132 0.238125,-0.74189 0.529167,-1.31237 0.471873,-0.92495 0.529166,-1.5594 0.529166,-5.8598 v -4.82254 l -0.79375,0.76046 -0.79375,0.76046 v -1.86177 c 0,-1.62941 0.09847,-2.00708 0.788936,-3.02606 l 0.788935,-1.1643 0.0048,-5.91252 0.0048,-5.91253 -1.058333,-1.20233 c -0.582083,-0.66128 -1.058333,-1.30146 -1.058333,-1.42262 0,-0.12115 1.041797,-0.17797 2.315104,-0.12625 1.273307,0.0517 3.297369,0.10808 4.497919,0.12524 1.20054,0.0172 2.18281,0.14014 2.18281,0.27327 0,0.13313 -0.59531,0.67905 -1.32292,1.21316 l -1.32291,0.97111 0.004,3.21861 0.004,3.21861 4.34667,-4.39487 4.34667,-4.39487 3.08683,-0.19009 c 1.79923,-0.1108 3.04713,-0.0911 2.99166,0.0472 -0.0523,0.13049 -1.04766,1.08523 -2.21183,2.12165 -1.16416,1.03641 -3.18542,2.88529 -4.49168,4.10862 l -2.37502,2.22423 1.95087,4.07555 c 1.07297,2.24155 3.01227,6.51633 4.30954,9.49951 1.29727,2.98318 2.76219,6.28716 3.25538,7.34219 l 0.89671,1.91823 -1.50832,-0.001 c -0.82957,-7.6e-4 -2.67476,-0.0786 -4.10043,-0.17302 l -2.59212,-0.17164 0.78324,-0.81918 0.78324,-0.81917 -3.48279,-8.6593 c -1.91553,-4.76262 -3.60745,-8.66192 -3.75982,-8.66511 -0.15236,-0.003 -0.71791,0.44571 -1.25677,0.99755 l -0.97973,1.00334 0.0108,7.52947 0.0108,7.52947 0.79357,0.92604 0.79358,0.92604 -1.66422,0.16751 c -2.746956,0.2765 -5.2361,0.25474 -5.2361,-0.0458 z m 22.426701,-44.5056 0.0694,-9.72344 h 9.52902 9.52901 l -0.0493,-7.209896 c -0.0271,-3.965443 -0.10189,-8.787474 -0.16614,-10.715625 l -0.11682,-3.505729 h -9.36276 -9.36275 l -0.0695,-9.326563 -0.0695,-9.326562 -11.31094,-0.06899 -11.310934,-0.06899 v 9.392513 9.392513 l -10.517187,0.06918 -10.517187,0.06918 -0.06915,10.649479 -0.06915,10.64948 h 10.586334 10.586335 v 9.79242 9.79243 l 11.310929,-0.069 11.31094,-0.069 z m -2.93033,6.73239 -0.71096,-0.74208 0.0146,-8.1876 0.0146,-8.18761 0.73766,-0.581107 0.73766,-0.581109 0.17375,5.187716 c 0.2382,7.11248 0.21811,13.83388 -0.0413,13.83388 -0.1183,0 -0.53502,-0.33394 -0.92605,-0.74209 z m 19.06665,-19.487808 -0.72761,-0.877107 V 90.213648 83.43694 h -9.525 -9.525 v -9.288488 -9.288488 l -0.79374,-1.002191 c -0.43657,-0.551205 -0.79375,-1.080035 -0.79375,-1.175179 0,-0.09514 0.73195,-0.137541 1.62655,-0.09422 l 1.62656,0.07877 -0.0564,9.326563 -0.0564,9.326562 8.15331,0.05999 c 4.48432,0.033 8.7786,0.06276 9.54285,0.06615 l 1.38955,0.0062 -4.8e-4,8.665104 c -2.7e-4,4.765807 -0.0302,8.656508 -0.0666,8.646002 -0.0364,-0.01051 -0.39357,-0.4138 -0.79375,-0.896209 z M 78.525952,82.56711 c -0.545709,-0.467479 -0.992194,-0.921134 -0.992187,-1.008122 6e-6,-0.08699 4.662561,-0.166537 10.361232,-0.176775 l 10.36122,-0.01861 1.015863,0.816369 c 0.558724,0.449004 1.01586,0.915505 1.01586,1.036671 0,0.121166 -4.673201,0.215831 -10.384893,0.210368 l -10.384896,-0.0099 z"
                        id="path3"
                        />
                    </g>
                </svg>